/* XPM */
static char *_455fd4ffc304295fac4894b5e3852b7lsekxWptzpd56lue[] = {
/* columns rows colors chars-per-pixel */
"64 36 203 2 ",
"   c #000001",
".  c #0B0003",
"X  c #000900",
"o  c #03000A",
"O  c #0B000C",
"+  c #0B0800",
"@  c #1C0002",
"#  c #12020D",
"$  c #000010",
"%  c #0B0113",
"&  c #0E0019",
"*  c #120213",
"=  c #1B0216",
"-  c #14011C",
";  c #19061D",
":  c #1C091E",
">  c #2A0307",
",  c #36000D",
"<  c #210013",
"1  c #2A011B",
"2  c #320015",
"3  c #340219",
"4  c #3F001B",
"5  c #1B0423",
"6  c #1E0B24",
"7  c #1D032A",
"8  c #170827",
"9  c #1E0B32",
"0  c #1D0035",
"q  c #2D0124",
"w  c #220A24",
"e  c #25022B",
"r  c #2C042C",
"t  c #230B2C",
"y  c #290B25",
"u  c #340024",
"i  c #340D26",
"p  c #330B2C",
"a  c #360528",
"s  c #2A122C",
"d  c #241528",
"f  c #32112C",
"g  c #250433",
"h  c #2E0533",
"j  c #2D0A35",
"k  c #2B063A",
"l  c #270C3C",
"z  c #2C0B3B",
"x  c #250B32",
"c  c #320533",
"v  c #320B35",
"b  c #320B3D",
"n  c #370B37",
"m  c #2D1334",
"M  c #2C143A",
"N  c #2B1A3A",
"B  c #33123D",
"V  c #3E123C",
"C  c #371538",
"Z  c #440708",
"A  c #550D1B",
"S  c #48191B",
"D  c #46042A",
"F  c #540F2C",
"G  c #461425",
"H  c #58142A",
"J  c #441234",
"K  c #43153C",
"L  c #4B143E",
"P  c #561B34",
"I  c #571C38",
"U  c #670E2C",
"Y  c #5C233D",
"T  c #582136",
"R  c #62273D",
"E  c #693231",
"W  c #713038",
"Q  c #2B0C44",
"!  c #350D43",
"~  c #390E45",
"^  c #320E4A",
"/  c #2E1442",
"(  c #2C1A42",
")  c #341344",
"_  c #3B1444",
"`  c #341A43",
"'  c #3B1946",
"]  c #35154C",
"[  c #3A134B",
"{  c #35194B",
"}  c #3C1B4B",
"|  c #331551",
" . c #3C1352",
".. c #361A53",
"X. c #3B1D53",
"o. c #3A1C59",
"O. c #39214C",
"+. c #3B2449",
"@. c #3C2254",
"#. c #3F2950",
"$. c #3F235A",
"%. c #352353",
"&. c #391B63",
"*. c #3E276F",
"=. c #4C1C49",
"-. c #481341",
";. c #511D4B",
":. c #421C53",
">. c #421A58",
",. c #442949",
"<. c #52264A",
"1. c #4C2655",
"2. c #43235C",
"3. c #49225D",
"4. c #45285E",
"5. c #492857",
"6. c #572057",
"7. c #55345C",
"8. c #6D2442",
"9. c #712F53",
"0. c #663754",
"q. c #733555",
"w. c #401C62",
"e. c #432362",
"r. c #4A2B63",
"t. c #552562",
"y. c #58316B",
"u. c #452370",
"i. c #512E70",
"p. c #4B3476",
"a. c #533479",
"s. c #623C77",
"d. c #7E404D",
"f. c #724353",
"g. c #644879",
"h. c #8E2329",
"j. c #84302E",
"k. c #953034",
"l. c #832535",
"z. c #83433A",
"x. c #893447",
"c. c #9B4747",
"v. c #B25B58",
"b. c #93645C",
"n. c #B75C67",
"m. c #9B6C64",
"M. c #A46669",
"N. c #BE7264",
"B. c #B26F55",
"V. c #C85F63",
"C. c #C76E66",
"Z. c #C87A67",
"A. c #C78377",
"S. c #D68F71",
"D. c #D99577",
"F. c #E4997C",
"G. c #E3A27C",
"H. c #613D87",
"J. c #564186",
"K. c #8E6283",
"L. c #986784",
"P. c #B2798A",
"I. c #D06F82",
"U. c #D47281",
"Y. c #C68F88",
"T. c #CD9284",
"R. c #DA9F8F",
"E. c #CB939E",
"W. c #D99B9C",
"Q. c #D78690",
"!. c #E39B83",
"~. c #E79B97",
"^. c #F79991",
"/. c #F0A586",
"(. c #E9AB95",
"). c #FBAF95",
"_. c #FEB395",
"`. c #F7B599",
"'. c #FFBB9C",
"]. c #DD99A4",
"[. c #E5A6A7",
"{. c #FFB5A4",
"}. c #FEBDA5",
"|. c #F3B7AD",
" X c #F6B1A1",
".X c #F5BCB4",
"XX c #F7BAB9",
"oX c #E7B8A8",
"OX c #FFC59D",
"+X c #FFCC9B",
"@X c #FFC1A7",
"#X c #FFCCA4",
"$X c #FFCEAB",
"%X c #FFC6AA",
"&X c #FFD2A7",
"*X c #FED3AC",
"=X c #FFD8AF",
"-X c #FFC5B4",
";X c #FFCFB5",
":X c #FFC5BD",
">X c #FFCDBA",
",X c #FFD4B2",
"<X c #FFD6BA",
/* pixels */
"                                                                                                                                ",
"                                                                                                                                ",
"                                    o o o                                                                                       ",
"                                    o o                                                                                         ",
"                                                    o o o o o o     O .                                                         ",
"                                                  O * ; 6 6 ; * # O o o o                                                       ",
"                                              O O - e B _ _ B M t ; * O o o                                                     ",
"                                            O ; m B _ ~ b b ! ) B m m w * o o                                                   ",
"                                o       o o d ,.7.1.:.:._ ! k b z B M M t - o                                                   ",
"                                          * : 7 5 z _ ! b b _ _ ) ) ` j ) #.- o                                                 ",
"                                          # % - g k z ! ' B v e ^  .) z 3.g.M %                                                 ",
"                                          O - ` / ^ ] :._ r q c  .[ e ' y.4.l &                                                 ",
"                                        O * ` r...o.>.:.h q u -.>.>.r v >.^ ] 5 o                                               ",
"                                      . O w 5.] | i.3.c u 9.8.D t.3.v v [  .:.m                                                 ",
"                                o       O s ` 0 $.s._ 1 8.Q.I.U 6.y.V r ! r.2.t                                                 ",
"                                        = s g l e.3.r u F x.V.n.D =.q r [ t._ w .       o                                       ",
"                                        O 6 O.Q 4.} g r a , j.^.M.G q r h _ u < .       o o                                     ",
"                                        O : ` Q 4.{ e K.0.d.N.).-XY.f.0.L.G P.G .                                               ",
"                                    o   o = p n 1.v a E.|.}._._.,X,XoX.X|.z..XE .                                               ",
"                                        o # < p 7.r P XX<X=X/.F.*X&X,X<X@XA.T.S .                                               ",
"                                  o o o o O O y ,.p F XX*X=X!.Z.=X+X+X*X}.A.b.@ . o o o                                         ",
"                                          o O 1 +.p 4 W.,X&X{.Z.G.+X#X,XR.Z > . . o o o o                                       ",
"                                            o * B V 2 M.,X#X'.}.'.OXOX,Xm.@                                                     ",
"                                        o     O B C 2 S (.$XD.S.D.!.%X(.S .                                                     ",
"                                              o - f i > E -X;X(.`.>X:XW 3 = o           o   o                                   ",
"                                o o             O 1 i 3 Z c.{.>X;X Xv.A 3 p 6 o                                                 ",
"                                o o             5 r r 2 l.h.k.C.Z.B./.A.R q 1.5 o   +     X                                     ",
"                                o o           O t j e q.U.V.v.C.!.`.>X~.Y -.~ g - o                                             ",
"                                  o   o O * w x j _ v Y n.^._.#X#X>X].q.;.[ [ >.2.{ 9 & o                                       ",
"                                    o 5 m C ' ' ) b v J H Q.@X#X<X[.I =.b ) X.e.a.H.p.%.9 $ o                                   ",
"                                  o x ' } } O./ } ! h c L P |.:X[.Y K ) e M @...w.u.p.J.p.9 o .                                 ",
"                                  & X.3.! z / ` b _ _ g b K T P.Y K j 7 ` M ( { o.&.&.*.a.r.;                                   ",
"                                o N @.] ) ' ) B ) } ] b b _ n J <.V B ) ` ) ` ) ] ] ..o.e.4.t O                                 ",
"                                % O.$.] ) ` ' B ] ) ) ' ! b v 1._ v B ) ) ) ) ) ] ] { ] o.$.M O                                 ",
"                                & #.$.| ) B ' z ) ) ) } ) z e n h h B ) ) ) ) ) ) } ) / | @.` %                                 ",
"                                % #.4...) ) ) g ) ] ) b b _ h v j j B B ) ) ) z z } ) ) | X.` O                                 "
};
